<?xml version="1.0" standalone="no"?><!DOCTYPE svg PUBLIC "-//W3C//DTD SVG 1.1//EN" "http://www.w3.org/Graphics/SVG/1.1/DTD/svg11.dtd"><svg t="1604300213146" class="icon" viewBox="0 0 1024 1024" version="1.1" xmlns="http://www.w3.org/2000/svg" p-id="7682" xmlns:xlink="http://www.w3.org/1999/xlink" width="200" height="200"><defs><style type="text/css"></style></defs><path d="M68.266667 418.133333h887.466666v529.066667H68.266667z" fill="#FFE0B1" p-id="7683"></path><path d="M153.6 588.8h136.533333v221.866667H153.6z" fill="#51DBFF" p-id="7684"></path><path d="M153.6 588.8l136.533333 136.533333v85.333334l-136.533333-136.533334z" fill="#B2F3FF" p-id="7685"></path><path d="M631.466667 554.666667H392.533333c-18.816 0-34.133333 15.3088-34.133333 34.133333v358.4c0 9.425067 7.633067 17.066667 17.066667 17.066667h273.066666c9.4336 0 17.066667-7.6416 17.066667-17.066667V588.8c0-18.824533-15.317333-34.133333-34.133333-34.133333z" fill="#7E5C62" p-id="7686"></path><path d="M358.4 947.2h153.6V554.666667h-119.466667c-18.852267 0-34.133333 15.281067-34.133333 34.133333v358.4z" fill="#5C546A" p-id="7687"></path><path d="M853.333333 418.133333c0 37.7024 30.564267 68.266667 68.266667 68.266667s68.266667-30.564267 68.266667-68.266667L929.527467 101.352533C924.928 77.205333 903.8144 59.733333 879.232 59.733333H144.768c-24.5824 0-45.696 17.472-50.295467 41.6192L34.133333 418.133333c0 37.7024 30.564267 68.266667 68.266667 68.266667s68.266667-30.564267 68.266667-68.266667c0 37.7024 30.564267 68.266667 68.266666 68.266667s68.266667-30.564267 68.266667-68.266667c0 37.7024 30.564267 68.266667 68.266667 68.266667s68.266667-30.564267 68.266666-68.266667c0 37.7024 30.564267 68.266667 68.266667 68.266667s68.266667-30.564267 68.266667-68.266667c0 37.7024 30.564267 68.266667 68.266666 68.266667s68.266667-30.564267 68.266667-68.266667c0 37.7024 30.564267 68.266667 68.266667 68.266667s68.266667-30.564267 68.266666-68.266667z" fill="#FF4F19" p-id="7688"></path><path d="M1006.933333 964.266667H17.066667c-9.4336 0-17.066667-7.6416-17.066667-17.066667s7.633067-17.066667 17.066667-17.066667h989.866666c9.4336 0 17.066667 7.6416 17.066667 17.066667s-7.633067 17.066667-17.066667 17.066667z" fill="#5C546A" p-id="7689"></path><path d="M443.733333 418.135467c0.002133 37.700267 30.564267 68.264533 68.266667 68.264533s68.264533-30.562133 68.266667-68.264533L571.733333 59.733333h-119.466666l-8.533334 358.402134zM170.666667 418.133333l-1.9456 15.556267c1.175467-5.0176 1.9456-10.1824 1.9456-15.556267zM307.2 418.133333l24.533333-358.4H215.466667L170.666667 418.133333c0 37.7024 30.564267 68.266667 68.266666 68.266667s68.266667-30.564267 68.266667-68.266667zM853.333333 418.133333c0 5.373867 0.770133 10.538667 1.9456 15.556267L853.333333 418.133333zM716.8 418.144c0.0064 37.696 30.5664 68.256 68.266667 68.256 37.7024 0 68.266667-30.564267 68.266666-68.266667L808.533333 59.733333h-116.266666L716.8 418.144z" fill="#E7001E" p-id="7690"></path><path d="M303.786667 554.666667H139.946667c-11.310933 0-20.48 7.6416-20.48 17.066666v256c0 9.425067 9.169067 17.066667 20.48 17.066667h163.84c11.310933 0 20.48-7.6416 20.48-17.066667V571.733333c0-9.425067-9.169067-17.066667-20.48-17.066666z m-13.653334 34.133333v51.2H153.6v-51.2h136.533333zM153.6 810.666667v-136.533334h136.533333v136.533334H153.6z" fill="#7E5C62" p-id="7691"></path><path d="M733.866667 588.8h136.533333v221.866667h-136.533333z" fill="#51DBFF" p-id="7692"></path><path d="M733.866667 588.8l136.533333 136.533333v85.333334l-136.533333-136.533334z" fill="#B2F3FF" p-id="7693"></path><path d="M884.053333 554.666667h-163.84c-11.310933 0-20.48 7.6416-20.48 17.066666v256c0 9.425067 9.169067 17.066667 20.48 17.066667h163.84c11.310933 0 20.48-7.6416 20.48-17.066667V571.733333c0-9.425067-9.169067-17.066667-20.48-17.066666z m-13.653333 34.133333v51.2h-136.533333v-51.2h136.533333z m-136.533333 221.866667v-136.533334h136.533333v136.533334h-136.533333z" fill="#7E5C62" p-id="7694"></path><path d="M475.733333 810.666667h-81.066666a2.133333 2.133333 0 0 1-2.133334-2.133334V590.933333a2.133333 2.133333 0 0 1 2.133334-2.133333h81.066666a2.133333 2.133333 0 0 1 2.133334 2.133333v217.6a2.133333 2.133333 0 0 1-2.133334 2.133334z" fill="#51DBFF" p-id="7695"></path><path d="M477.866667 691.2l-85.333334-85.333333v85.333333l85.333334 85.333333z" fill="#B2F3FF" p-id="7696"></path><path d="M629.333333 810.666667h-81.066666a2.133333 2.133333 0 0 1-2.133334-2.133334V590.933333a2.133333 2.133333 0 0 1 2.133334-2.133333h81.066666a2.133333 2.133333 0 0 1 2.133334 2.133333v217.6a2.133333 2.133333 0 0 1-2.133334 2.133334z" fill="#51DBFF" p-id="7697"></path><path d="M631.466667 691.2l-85.333334-85.333333v85.333333l85.333334 85.333333z" fill="#B2F3FF" p-id="7698"></path></svg>